<svg xmlns="http://www.w3.org/2000/svg" width="223" height="48" fill="none" viewBox="0 0 223 48">
  <path fill="#1240CA" d="M6.49 15.704v6.528h7.68v2.976H6.49v6.816h8.64V35H2.842V12.728H15.13v2.976H6.49Zm19.245 16.032 4.992-14.368H34.6L27.88 35h-4.352L16.84 17.368h3.904l4.992 14.368Zm27.078-5.984c0 .661-.043 1.259-.128 1.792H39.213c.106 1.408.629 2.539 1.568 3.392.938.853 2.09 1.28 3.456 1.28 1.962 0 3.349-.821 4.16-2.464h3.936c-.534 1.621-1.504 2.955-2.912 4-1.387 1.024-3.115 1.536-5.184 1.536-1.686 0-3.2-.373-4.544-1.12a8.371 8.371 0 0 1-3.136-3.2c-.747-1.387-1.12-2.987-1.12-4.8 0-1.813.362-3.403 1.088-4.768.746-1.387 1.781-2.453 3.104-3.2 1.344-.747 2.88-1.12 4.608-1.12 1.664 0 3.146.363 4.448 1.088a7.66 7.66 0 0 1 3.04 3.072c.725 1.301 1.088 2.805 1.088 4.512ZM49.005 24.6c-.022-1.344-.502-2.421-1.44-3.232-.939-.81-2.102-1.216-3.488-1.216-1.259 0-2.336.405-3.232 1.216-.896.79-1.43 1.867-1.6 3.232h9.76Zm15.59-7.52c1.386 0 2.624.288 3.712.864 1.109.576 1.973 1.43 2.592 2.56.618 1.13.928 2.496.928 4.096V35H68.21v-9.856c0-1.579-.395-2.784-1.184-3.616-.79-.853-1.867-1.28-3.232-1.28-1.366 0-2.454.427-3.264 1.28-.79.832-1.184 2.037-1.184 3.616V35h-3.648V17.368h3.648v2.016c.597-.725 1.354-1.29 2.272-1.696a7.428 7.428 0 0 1 2.976-.608Zm15.437 3.264v9.76c0 .661.15 1.141.448 1.44.32.277.853.416 1.6.416h2.24V35h-2.88c-1.643 0-2.901-.384-3.776-1.152-.875-.768-1.312-2.016-1.312-3.744v-9.76h-2.08v-2.976h2.08v-4.384h3.68v4.384h4.288v2.976h-4.288Zm14.594 14.944c-1.664 0-3.168-.373-4.512-1.12a8.303 8.303 0 0 1-3.168-3.2c-.768-1.387-1.152-2.987-1.152-4.8 0-1.792.395-3.381 1.184-4.768.79-1.387 1.867-2.453 3.232-3.2 1.366-.747 2.89-1.12 4.576-1.12 1.686 0 3.21.373 4.576 1.12 1.365.747 2.443 1.813 3.232 3.2.789 1.387 1.184 2.976 1.184 4.768 0 1.792-.405 3.381-1.216 4.768a8.506 8.506 0 0 1-3.328 3.232c-1.386.747-2.922 1.12-4.608 1.12Zm0-3.168c.939 0 1.813-.224 2.624-.672.832-.448 1.504-1.12 2.016-2.016.512-.896.768-1.984.768-3.264 0-1.28-.245-2.357-.736-3.232-.49-.896-1.141-1.568-1.952-2.016a5.338 5.338 0 0 0-2.624-.672c-.938 0-1.813.224-2.624.672-.79.448-1.418 1.12-1.888 2.016-.47.875-.704 1.952-.704 3.232 0 1.899.48 3.37 1.44 4.416.981 1.024 2.208 1.536 3.68 1.536Zm10.838-8.288c0-2.176.502-4.128 1.504-5.856 1.024-1.728 2.4-3.072 4.128-4.032 1.75-.981 3.659-1.472 5.728-1.472 2.368 0 4.47.587 6.304 1.76 1.856 1.152 3.2 2.795 4.032 4.928h-4.384c-.576-1.173-1.376-2.048-2.4-2.624-1.024-.576-2.208-.864-3.552-.864-1.472 0-2.784.33-3.936.992-1.152.661-2.058 1.61-2.72 2.848-.64 1.237-.96 2.677-.96 4.32 0 1.643.32 3.083.96 4.32.662 1.237 1.568 2.197 2.72 2.88 1.152.661 2.464.992 3.936.992 1.344 0 2.528-.288 3.552-.864 1.024-.576 1.824-1.45 2.4-2.624h4.384c-.832 2.133-2.176 3.776-4.032 4.928-1.834 1.152-3.936 1.728-6.304 1.728-2.09 0-4-.48-5.728-1.44a11.094 11.094 0 0 1-4.128-4.064c-1.002-1.728-1.504-3.68-1.504-5.856Zm41.422 1.92c0 .661-.042 1.259-.128 1.792h-13.472c.107 1.408.63 2.539 1.568 3.392.939.853 2.091 1.28 3.456 1.28 1.963 0 3.35-.821 4.16-2.464h3.936c-.533 1.621-1.504 2.955-2.912 4-1.386 1.024-3.114 1.536-5.184 1.536-1.685 0-3.2-.373-4.544-1.12a8.375 8.375 0 0 1-3.136-3.2c-.746-1.387-1.12-2.987-1.12-4.8 0-1.813.363-3.403 1.088-4.768.747-1.387 1.782-2.453 3.104-3.2 1.344-.747 2.88-1.12 4.608-1.12 1.664 0 3.147.363 4.448 1.088a7.654 7.654 0 0 1 3.04 3.072c.726 1.301 1.088 2.805 1.088 4.512Zm-3.808-1.152c-.021-1.344-.501-2.421-1.44-3.232-.938-.81-2.101-1.216-3.488-1.216-1.258 0-2.336.405-3.232 1.216-.896.79-1.429 1.867-1.6 3.232h9.76Zm10.342-4.672a5.652 5.652 0 0 1 2.112-2.08c.896-.512 1.952-.768 3.168-.768v3.776h-.928c-1.429 0-2.517.363-3.264 1.088-.725.725-1.088 1.984-1.088 3.776V35h-3.648V17.368h3.648v2.56Zm12.186.416v9.76c0 .661.149 1.141.448 1.44.32.277.853.416 1.6.416h2.24V35h-2.88c-1.643 0-2.902-.384-3.776-1.152-.875-.768-1.312-2.016-1.312-3.744v-9.76h-2.08v-2.976h2.08v-4.384h3.68v4.384h4.288v2.976h-4.288ZM180.2 35.288c-1.664 0-3.168-.373-4.512-1.12a8.303 8.303 0 0 1-3.168-3.2c-.768-1.387-1.152-2.987-1.152-4.8 0-1.792.395-3.381 1.184-4.768.789-1.387 1.867-2.453 3.232-3.2 1.365-.747 2.891-1.12 4.576-1.12 1.685 0 3.211.373 4.576 1.12 1.365.747 2.443 1.813 3.232 3.2.789 1.387 1.184 2.976 1.184 4.768 0 1.792-.405 3.381-1.216 4.768a8.505 8.505 0 0 1-3.328 3.232c-1.387.747-2.923 1.12-4.608 1.12Zm0-3.168c.939 0 1.813-.224 2.624-.672.832-.448 1.504-1.12 2.016-2.016.512-.896.768-1.984.768-3.264 0-1.28-.245-2.357-.736-3.232-.491-.896-1.141-1.568-1.952-2.016a5.338 5.338 0 0 0-2.624-.672c-.939 0-1.813.224-2.624.672-.789.448-1.419 1.12-1.888 2.016-.469.875-.704 1.952-.704 3.232 0 1.899.48 3.37 1.44 4.416.981 1.024 2.208 1.536 3.68 1.536Zm31.588-20.746a3 3 0 0 0-4.243 0l-13.172 13.171a3.001 3.001 0 0 0 0 4.243l1.562 1.562c.681.68 1.637.559 2.215.216a1.667 1.667 0 0 1 2.284 2.284c-.344.577-.465 1.533.215 2.214l1.563 1.562a3 3 0 0 0 4.242 0l13.172-13.171a3.001 3.001 0 0 0 0-4.243l-1.562-1.562c-.681-.681-1.637-.56-2.215-.216a1.666 1.666 0 0 1-2.284-2.284c.344-.578.466-1.534-.215-2.215l-1.562-1.561Z"/>
  <path fill="#F5F6F9" d="m204.375 27.44-2.845-2.845a.75.75 0 1 0-1.06 1.06l3.375 3.375a.75.75 0 0 0 1.06 0l8.25-8.25a.75.75 0 1 0-1.06-1.06l-7.72 7.72Z"/>
</svg>